<svg width="76" height="76" viewBox="0 0 76 76" fill="none" xmlns="http://www.w3.org/2000/svg">
<path d="M34.0734 41.9267C26.6634 34.5167 26.6634 22.4834 34.0734 15.0417C41.4834 7.63169 53.5167 7.63169 60.9584 15.0417C68.3684 22.4517 68.3684 34.485 60.9584 41.9267C53.5484 49.3367 41.515 49.3367 34.0734 41.9267Z" stroke="#0000FF" stroke-width="4" stroke-linecap="round" stroke-linejoin="round"/>
<path d="M33.25 42.75L9.5 66.5" stroke="#0000FF" stroke-width="4" stroke-linecap="round" stroke-linejoin="round"/>
<path d="M46.5437 28.8601C47.0065 28.2946 50.4575 26.1051 53.1647 26.3787C53.1647 26.3787 52.3177 29.2364 46.9037 29.9735M41.2107 28.1882C41.1853 27.7895 43.2286 22.8927 45.7081 22.3918C46.0555 24.2805 43.6521 27.082 43.0866 27.5702" stroke="#0000FF" stroke-width="0.5" stroke-linecap="round" stroke-linejoin="round"/>
<path d="M42.1616 27.7375C41.2509 28.0028 40.472 28.5985 39.9776 29.4081C39.732 30.0017 39.5427 30.617 39.4121 31.2459C39.2961 31.5541 38.6538 32.4277 38.6792 33.0319C38.7046 33.636 38.9233 35.512 41.4547 36.3469C43.9862 37.1819 45.6313 36.7584 46.2609 35.8455C46.3608 35.7382 46.43 35.6061 46.4613 35.4629C46.4927 35.3197 46.485 35.1708 46.439 35.0316C46.3931 34.8924 46.3106 34.7681 46.2002 34.6717C46.0898 34.5754 45.9555 34.5104 45.8114 34.4837C45.6409 34.4367 45.4616 34.4319 45.2889 34.4697C45.1162 34.5074 44.9552 34.5866 44.8199 34.7004C44.6846 34.8142 44.5789 34.9592 44.5121 35.1229C44.4453 35.2866 44.4193 35.4641 44.4363 35.64C44.4109 36.7958 45.8609 36.2587 45.8609 36.2587" stroke="#0000FF" stroke-width="0.5" stroke-linecap="round" stroke-linejoin="round"/>
<path d="M38.8767 32.267C38.9686 32.0755 39.6217 31.977 39.5703 33.1587C39.519 34.3405 39.0072 34.2764 38.8091 33.8469M47.5967 29.8636C47.9447 30.7445 48.3821 32.4023 47.1478 34.7284M43.2328 27.4337C43.9348 27.4548 45.7437 27.6783 46.7219 28.6843M51.7932 25.4308L51.6966 25.0907L52.6602 24.84" stroke="#0000FF" stroke-width="0.5" stroke-linecap="round" stroke-linejoin="round"/>
<path d="M52.5835 25.9063L52.4548 25.4888L53.5538 25.0134L52.969 23.8056C53.463 23.5059 53.9975 23.2787 54.5561 23.1308L54.132 21.5309C55.5381 20.7842 57.0576 20.2741 58.6294 20.0211C58.6294 20.0211 58.8608 16.7701 59.0535 15.8125C57.7065 16.2488 56.3925 16.7813 55.1216 17.4057C54.1187 18.0225 52.1334 19.5843 52.1334 19.5843C52.1334 19.5843 53.2257 22.726 53.2964 22.8414L51.8186 23.6189L52.5581 24.8665M49.1567 34.651C48.457 36.4598 47.4515 38.1348 46.1842 39.6028C45.5842 40.0994 44.4019 41.1017 44.0853 41.1192C43.7687 41.1368 43.7681 41.0763 43.7681 41.0763L43.6225 41.1875L43.4171 41.0244L43.0486 41.1361L42.9628 40.7338C42.9628 40.7338 42.5604 40.8274 42.4577 40.6909C42.355 40.5543 42.8431 40.1423 42.8431 40.1423C42.8431 40.1423 42.9543 37.629 43.837 36.7952" stroke="#0000FF" stroke-width="0.5" stroke-linecap="round" stroke-linejoin="round"/>
<path d="M44.6641 27.6355C45.3226 26.4785 46.801 25.1288 48.1374 24.898C49.4738 24.6672 51.9153 25.0581 52.9109 26.093C53.9066 27.128 54.8769 29.19 54.5174 30.4744C54.1579 31.7589 53.7398 32.2869 52.943 32.6851C52.1461 33.0832 49.7433 34.0245 48.9724 35.1537M38.7505 33.607C38.191 33.9399 36.5803 35.6443 36.3664 36.3342M36.7519 36.2617L35.9465 36.5959L36.4178 36.8701L36.1779 37.1015L36.529 37.1698V37.3414L36.7519 37.2985L36.8292 37.6066H37.112C37.3069 37.6443 37.5044 37.6671 37.7028 37.6749C38.8266 37.6785 40.7013 36.7928 41.4167 36.3342" stroke="#0000FF" stroke-width="0.5" stroke-linecap="round" stroke-linejoin="round"/>
<path d="M37.3259 36.8786L37.0087 37.1184L37.3259 37.2556M40.5279 35.9451C40.4602 35.7447 40.4373 35.5318 40.4608 35.3216C40.4844 35.1113 40.554 34.9088 40.6645 34.7284C40.8699 34.439 41.0373 34.2076 41.314 34.2269C41.6854 34.3541 42.0102 34.5899 42.2461 34.9038C42.482 35.2177 42.6182 35.5952 42.6371 35.9874C42.6202 36.1166 42.5673 36.2383 42.4845 36.3388C42.4017 36.4394 42.2923 36.5146 42.1689 36.556" stroke="#0000FF" stroke-width="0.5" stroke-linecap="round" stroke-linejoin="round"/>
<path d="M40.4439 35.602C40.5992 35.2075 41.8142 34.7241 42.1193 34.7519M47.0686 25.2901C47.7132 25.3475 50.0042 25.9232 50.8954 26.612M52.004 27.9532C52.2466 28.4471 52.3826 28.9864 52.4034 29.5361M50.6942 30.8732C50.4362 30.3046 50.1058 29.7717 49.7112 29.2878M47.9652 27.8463C47.6232 27.5962 45.6428 27.4777 44.9117 27.5061M50.7685 26.647C50.8758 27.4719 50.715 28.3094 50.31 29.0359M43.6919 23.7301C44.0121 23.7664 44.5257 24.5717 44.539 25.8145M45.3914 32.4549L43.5451 33.0844M40.2258 30.7076L40.8336 32.3383M41.0952 33.366L41.2819 33.456M43.7336 33.0204C43.6629 33.2584 43.6696 34.1767 44.4018 34.1767C45.1341 34.1767 45.1987 33.6179 45.1987 33.2904C45.1985 33.1614 45.1662 33.0345 45.1049 32.9211C45.0435 32.8076 44.9549 32.7112 44.8471 32.6404M40.401 31.1783C40.2363 31.2343 40.0955 31.3446 40.0018 31.4912C39.908 31.6378 39.8669 31.8118 39.8851 31.9848C39.9044 32.2627 40.1225 32.6337 40.3539 32.6404C40.5853 32.647 40.7726 32.3449 40.7563 32.1304M53.6625 32.1836C53.8934 32.3109 54.1147 32.4549 54.3246 32.6144L54.254 32.7811L54.5047 33.1092L54.7935 32.6464" stroke="#0000FF" stroke-width="0.5" stroke-linecap="round" stroke-linejoin="round"/>
<path d="M54.3192 31.0895C54.3192 31.0895 55.0055 32.0169 55.0503 32.1516C55.0731 32.3738 55.0731 32.5977 55.0503 32.8198L54.5941 32.966" stroke="#0000FF" stroke-width="0.5" stroke-linecap="round" stroke-linejoin="round"/>
</svg>
